# xmcd CD database file
#
# Track frame offsets:
#	150
#	46840
#	72150
#	97100
#	125870
#	172893
#
# Disc length: 2731 seconds
#
# Revision: 0
# Processed by: cddbd v1.5.1PL0 Copyright (c) Steve Scherf et al.
# Submitted via: CDex 1.51
#
DISCID=4f0aa906
DTITLE=Lee Morgan - The Very Best of Lee Morgan
DYEAR=2005
DGENRE=Jazz
TTITLE0=The Sidewinder
TTITLE1=Since I Fell for You
TTITLE2=Speedball
TTITLE3=Ceora
TTITLE4=The Rumproller
TTITLE5=I Remember Clifford
EXTD=YEAR: 2005
EXTT0=
EXTT1=
EXTT2=
EXTT3=
EXTT4=
EXTT5=
PLAYORDER=
